<?xml version="1.0" encoding="utf-8"?>
<!-- Generator: Adobe Illustrator 23.0.2, SVG Export Plug-In . SVG Version: 6.00 Build 0)  -->
<svg version="1.1" xmlns="http://www.w3.org/2000/svg" xmlns:xlink="http://www.w3.org/1999/xlink" x="0px" y="0px"
	 viewBox="0 0 100 100" enable-background="new 0 0 100 100" xml:space="preserve">
<g id="Postre">
</g>
<g id="Capa_1" opacity="0.72">
	<ellipse fill="#027285" cx="69.107" cy="50.132" rx="1.635" ry="1.522"/>
	<ellipse opacity="0.53" fill="#3CA5B5" cx="69.751" cy="50.132" rx="0.709" ry="0.726"/>
	<ellipse fill="#027285" cx="63.81" cy="15.497" rx="1.635" ry="1.522"/>
	<ellipse opacity="0.53" fill="#3CA5B5" cx="64.454" cy="15.497" rx="0.709" ry="0.726"/>
	
		<ellipse transform="matrix(0.4494 -0.8933 0.8933 0.4494 3.2075 55.7281)" fill="#027285" cx="46.815" cy="25.262" rx="1.665" ry="1.495"/>
	<ellipse opacity="0.53" fill="#3CA5B5" cx="47.162" cy="24.706" rx="0.709" ry="0.726"/>
	<path fill="#027285" d="M81.835,29.513c0,0,3.22-2.116,4.353-2.119c2.068-0.004,3.277-3.528,0.358-3.508
		C83.626,23.908,81.835,29.513,81.835,29.513z"/>
	<path opacity="0.4" fill="#E8F7F9" d="M83.96,27.233c0,0,1.966-1.292,2.657-1.293c1.263-0.003,2.001-2.154,0.218-2.141
		C85.054,23.81,83.96,27.233,83.96,27.233z"/>
	<path fill="#027285" d="M89.175,23.786c0,0,2.443,0.542,2.997,1.091c1.012,1.003,3.051-0.113,1.616-1.521
		C92.353,21.948,89.175,23.786,89.175,23.786z"/>
	<path opacity="0.4" fill="#E8F7F9" d="M91.151,23.717c0,0,1.491,0.331,1.83,0.666c0.618,0.612,1.863-0.069,0.986-0.929
		C93.091,22.594,91.151,23.717,91.151,23.717z"/>
	<path fill="#027285" d="M85.85,15.48c0,0,2.567-1.649,3.471-1.651c1.649-0.003,2.613-2.749,0.285-2.733
		C87.278,11.112,85.85,15.48,85.85,15.48z"/>
	<path opacity="0.4" fill="#E8F7F9" d="M87.545,13.703c0,0,1.568-1.007,2.119-1.008c1.007-0.002,1.595-1.679,0.174-1.669
		S87.545,13.703,87.545,13.703z"/>
	<path fill="#027285" d="M91.7,11.01c0,0,0.842-1.788,0.771-2.386c-0.13-1.092,1.538-1.876,1.714-0.334S91.7,11.01,91.7,11.01z"/>
	<path opacity="0.4" fill="#E8F7F9" d="M92.693,9.793c0,0,0.514-1.091,0.47-1.457c-0.08-0.667,0.939-1.146,1.047-0.204
		C94.318,9.075,92.693,9.793,92.693,9.793z"/>
	<path fill="#027285" d="M19.502,54.174c0,0-2.741,1.323-3.638,1.214c-1.637-0.199-2.915,2.41-0.602,2.679
		S19.502,54.174,19.502,54.174z"/>
	<path opacity="0.4" fill="#E8F7F9" d="M17.611,55.731c0,0-1.674,0.808-2.221,0.741c-1-0.121-1.78,1.471-0.368,1.636
		C16.435,58.273,17.611,55.731,17.611,55.731z"/>
	<path fill="#027285" d="M13.172,57.896c0,0-1.044,1.672-1.043,2.275c0.002,1.1-1.745,1.675-1.741,0.122
		C10.393,58.739,13.172,57.896,13.172,57.896z"/>
	<path opacity="0.4" fill="#E8F7F9" d="M12.044,58.982c0,0-0.638,1.021-0.637,1.389c0.001,0.672-1.066,1.022-1.063,0.074
		C10.347,59.497,12.044,58.982,12.044,58.982z"/>
	<path fill="#027285" d="M28.768,16.418c0,0-3.088-2.314-3.498-3.396c-0.749-1.975-4.394-1.86-3.323,0.922
		S28.768,16.418,28.768,16.418z"/>
	<path opacity="0.4" fill="#E8F7F9" d="M25.925,15.208c0,0-1.885-1.413-2.136-2.073c-0.457-1.206-2.683-1.136-2.029,0.563
		C22.415,15.397,25.925,15.208,25.925,15.208z"/>
	<path fill="#027285" d="M20.907,11.468c0,0-0.387-2.53-0.087-3.257c0.548-1.329-1.202-2.875-1.967-0.996
		C18.088,9.094,20.907,11.468,20.907,11.468z"/>
	<path opacity="0.4" fill="#E8F7F9" d="M20.132,9.605c0,0-0.236-1.544-0.053-1.989c0.335-0.811-0.734-1.755-1.201-0.608
		S20.132,9.605,20.132,9.605z"/>
	<path opacity="0.85" fill="#027285" d="M29.77,32.366c0,0,3.842-11.936,16.441-12.501C58.81,19.3,68.97,14.69,78.114,28.576
		s-4.501,17.386-4.501,17.386s-13.787,8.591-16.225,1.792c-2.438-6.799,8.535-9.572,12.802-9.598
		c4.267-0.026,8.941-1.387,7.112-5.791s-6.299-6.482-7.315-6.196c-1.016,0.286-8.128,5.655-5.487,7.49
		c2.642,1.835-0.406,3.453-0.406,3.453s-11.078,2.482-8.587-4.746s9.4-4.969,10.01-7.417s-6.706-4.896-8.128-4.143
		c-1.422,0.753-10.567,0.188-13.005,3.954c-2.438,3.766,0,12.743,0,12.743s-0.61,8.148-7.925,5.611
		C29.142,40.578,27.96,36.06,29.77,32.366z"/>
	<path opacity="0.85" fill="#027285" d="M66.719,49.918c0,0-3.177,3.038-5.522,3.339c-2.345,0.302-4.213,1.657-3.962,3.148
		c0.251,1.491,2.852,4.331,5.862,1.41S66.719,49.918,66.719,49.918z"/>
	<path opacity="0.85" fill="#E8F7F9" d="M34.234,25.638c0,0-4.349,5.714-4.572,9.624c-0.298,5.226,7.231,7.522,7.231,7.522
		s7.133,0.121,1.304-5.159c-3.648-3.304-5.639-1.551-6.249-4.497S34.234,25.638,34.234,25.638z"/>
	<path opacity="0.85" fill="#E8F7F9" d="M59.915,54.537c0,0-1.8-0.03-2.069,1.226c-0.427,1.998,2.29,2.557,2.29,2.557
		s2.936-0.153,3.784-2.218c0,0-2.442,0.994-3.051,0.25C60.26,55.608,60.39,54.481,59.915,54.537z"/>
	<path opacity="0.85" fill="#E8F7F9" d="M80.156,33.052c0,0,1.883,7.148-2.921,10.407c-4.863,3.298-15.284,7.271-16.909,5.67
		c-1.626-1.601-1.294-2.95-1.294-2.95s2.241-4.942,5.301-3.097c4.776,2.881,5.549,2.282,7.116,1.717
		C73.013,44.234,80.664,43.387,80.156,33.052z"/>
	<path opacity="0.85" fill="#3CA5B5" d="M58.502,29.072c0,0-3.042,3.967-1.823,6.417c1.219,2.45,6.432,1.248,6.432,1.248
		s2.235-0.565,1.524-2.26c-0.711-1.695-3.307,0.876-5.658,0.741C58.294,35.179,56.12,33.309,58.502,29.072z"/>
	<path opacity="0.85" fill="#3CA5B5" d="M30.183,29.46c0,0-12.814,5.907-12.381,16.514s8.243,2.653,8.243,2.653
		s2.187-2.716-0.316-8.52S30.183,29.46,30.183,29.46z"/>
	<path opacity="0.85" fill="#3CA5B5" d="M42.046,40.488c0,0,1.829-2.106,0.406-5.998c-1.422-3.892-6.776-9.77-2.204-11.559
		s3.751-1.191,4.541-1.466c2.145-0.747-4.808,0.824-7.011,1.695c-2.708,1.07-5.86,7.51-4.743,9.433
		c1.118,1.923,3.443,3.531,7.801,4.911C40.837,37.504,42.821,37.89,42.046,40.488z"/>
	<path opacity="0.85" fill="#3CA5B5" d="M57.794,19.015c0,0,10.16-1.036,16.256,4.896c6.096,5.932,1.321,2.73,1.321,2.73
		s-2.955-2.566-5.224-1.789c-2.269,0.777-3.368-1.628-3.368-1.628s-0.841-1.999-3.562-2.821
		C60.765,19.663,64.55,20.38,57.794,19.015z"/>
	<path opacity="0.85" fill="#3CA5B5" d="M68.107,42.744c0,0-5.54-1.734-4.039-2.825c1.502-1.091,6.63-1.738,6.858-1.293
		s4.279,0.511,4.039,1.988C74.725,42.091,68.821,42.986,68.107,42.744z"/>
	<path opacity="0.85" fill="#3CA5B5" d="M65.929,52.301c0,0-1.777,3.57-3.319,3.918c-1.453,0.328-2.424-0.401-1.707-1.245
		s2.712-0.205,3.417-1.1C65.026,52.979,65.649,52.716,65.929,52.301z"/>
	<path opacity="0.85" fill="#E8F7F9" d="M18.691,42.038c0,0-1.185,8.554,1.825,8.825c3.011,0.272,4.012-3.012,4.012-3.012
		s0.635-2.511-3.575-2.807C19.701,44.956,18.691,42.038,18.691,42.038z"/>
	<path opacity="0.85" fill="#3CA5B5" d="M25.132,24.098c0,0-6.021-6.674-12.133-4.331s0.102,5.558,0.102,5.558
		s2.025,0.804,4.916-1.863S25.132,24.098,25.132,24.098z"/>
	<path opacity="0.85" fill="#E8F7F9" d="M16.061,20.023c0,0-5.665,0.177-5.22,2.07c0.445,1.893,2.381,0.946,2.381,0.946
		s1.075-1.106,1.107-1.82C14.367,20.409,16.061,20.023,16.061,20.023z"/>
	<path opacity="0.85" fill="#3CA5B5" d="M82.209,31.227c0,0,3.114-3.607,6.282-1.488s-0.049,3.513-0.049,3.513
		s-1.049,0.3-2.548-1.69C84.395,29.571,82.209,31.227,82.209,31.227z"/>
	<path opacity="0.85" fill="#E8F7F9" d="M87.007,29.776c0,0,2.934,0.699,2.705,1.853c-0.229,1.154-1.327,0.915-1.327,0.915
		s-0.393-0.916-0.104-1.223C88.57,31.014,87.007,29.776,87.007,29.776z"/>
</g>
</svg>
