<?xml version="1.0" encoding="utf-8"?>
<!-- Generator: Adobe Illustrator 23.0.2, SVG Export Plug-In . SVG Version: 6.00 Build 0)  -->
<svg version="1.1" xmlns="http://www.w3.org/2000/svg" xmlns:xlink="http://www.w3.org/1999/xlink" x="0px" y="0px"
	 viewBox="0 0 100 100" enable-background="new 0 0 100 100" xml:space="preserve">
<g id="Postre">
</g>
<g id="Capa_1" opacity="0.72">
	<path opacity="0.85" fill="#027285" d="M48.471,1.304c-26.185,0-47.412,21.227-47.412,47.412c0,26.185,21.227,47.412,47.412,47.412
		c6.141,0,12.004-1.18,17.39-3.306c-5.645,0.435-11.34,0.569-16.618-1.706c-4.058-1.75-9.286-9.631-9.537-14.703
		C39.441,71.046,45,78.825,52.698,75.41c4.249-1.885,9.305,1.456,13.633,1.812c4.551,0.374,11.5,1.777,14.362-2.874
		c1.105-1.796,2.097-5.127,2.482-8.381c-1.223,0.504-2.676,0.499-4.17-0.356C74.442,63,67.854,61.59,69.281,54.655
		c1.396-6.784,8.729-9.007,14.615-6.94c6.748,2.37,9.4,9.249,9.389,16.474c1.675-4.851,2.597-10.054,2.597-15.474
		C95.882,22.531,74.655,1.304,48.471,1.304z M35.679,85.518c-0.186,2.827-3.893,0.66-6.538,0.127
		c-4.828-0.972-9.659-3.051-13.265-6.462c-4.687-4.433,2.397-11.492,7.071-7.071c2.3,2.175,6.444,1.778,8.853,3.891
		C35.375,79.137,35.799,83.697,35.679,85.518z M71.094,65.414c5.671,5.296,6.818,8.263-2.658,9.643
		c-0.107,0.016-0.202-0.052-0.306-0.076c-0.495,0.163-1.048,0.254-1.659,0.254c-0.798,0-1.496-0.154-2.096-0.423
		c-0.569-0.153-1.076-0.387-1.504-0.701c-0.337-0.036-0.678-0.101-1.023-0.231c-2.542-0.959-4.907-2.705-7.495-3.457
		c-2.963-0.861-6.519-0.163-9.529,0.107c-3.772,0.338-7.982,0.713-11.323-1.463c-7.945-5.174-2.268-17.464,3.149-22.356
		c6.614-5.973,18.074-6.516,25.199-1.105c3.524,2.677,5.307,6.423,5.857,10.747C68.111,59.536,68.195,62.706,71.094,65.414z"/>
	<path opacity="0.53" fill="#3CA5B5" d="M90.054,36.11C82.831,13.12,55.181,3.497,58.669,6.972c3.487,3.475,0,11.762,0,11.762
		s-13.7-21.386-36.118,0C0.132,40.12,8.601,68.456,8.601,68.456C11.59,37.714,30.1,12.853,43.225,14.992
		C56.35,17.13,59.416,27.823,59.416,27.823c6.227,0.267,5.48-12.564,5.48-12.564c2.989,0.267,8.469,5.346,8.469,5.346
		s1.495,6.95-3.487,4.812c-3.909-1.678-11.957,9.317-13.677,17.359c2.042,0.621,3.968,1.554,5.648,2.83
		c3.524,2.677,5.307,6.423,5.857,10.747c0.405,3.183,0.452,6.393,3.388,9.061c6.2,5.633,5.582,7.557-2.658,9.643
		c-0.105,0.027-0.202-0.052-0.306-0.076c-0.495,0.163-1.048,0.254-1.659,0.254c-0.798,0-1.496-0.154-2.096-0.423
		c-0.569-0.153-1.076-0.387-1.504-0.701c-0.337-0.036-0.678-0.101-1.023-0.231c-2.542-0.959-4.907-2.705-7.495-3.457
		c-0.021-0.006-0.044-0.009-0.066-0.015c-0.656,1.893-1.346,3.611-2.005,4.991c0.139,0.004,0.278,0.005,0.417,0.011
		c4.643,0.215,9.305,1.456,13.633,1.812c2.204,0.181,4.97,0.599,7.563,0.458c2.87-2.008,5.94-4.918,8.704-8.483
		c0.246-1.046,2.331-2.725,2.46-3.815c-1.223,0.504-4.559,1.084-6.053,0.229C74.442,63,67.854,61.59,69.281,54.655
		c1.396-6.784,8.729-9.007,14.615-6.94c2.957,1.038,5.126,2.944,6.632,5.363C91.806,47.722,91.89,41.952,90.054,36.11z"/>
	<path opacity="0.53" fill="#3CA5B5" d="M41.118,81.794c0.135-0.525-1.011-1.857-0.796-2.296c-2.724-0.119-2.988-0.567-5.694-1.429
		c0.752,1.213,1.072,5.552,1.386,6.901c0.701,3.015-3.584,1.609-6.026,0.772c4.899,1.89,10.404,2.691,14.295,1.994
		C42.689,85.978,40.423,84.486,41.118,81.794z"/>
	<path opacity="0.53" fill="#3CA5B5" d="M22.947,72.112c1.49,1.409,4.083,1.803,6.131,2.47c-1.021-0.752-2.418-1.007-2.791-1.848
		c-2.142-4.827-5.938-7.866-7.12-1.999C20.428,70.611,21.765,70.993,22.947,72.112z"/>
	<path opacity="0.57" fill="#E8F7F9" d="M8.341,62.97c0,0-9.606-15.184,2.479-38.658S53.119,4.79,53.119,4.79
		s3.254,0.193,3.254,1.491s-0.697,6.643-4.183,5.249c-3.486-1.394-23.706,0.775-30.833,9.761C4.241,42.871,6.583,55.574,8.341,62.97
		z"/>
	<path opacity="0.4" fill="#E8F7F9" d="M75.192,77.559c2.334-1.49,4.571-3.253,6.498-5.337c0.625-1.656,1.139-3.715,1.42-5.786
		c-3.7,3.69-9.516,8.607-16.047,10.853C69.522,77.526,72.524,77.936,75.192,77.559z"/>
	<path opacity="0.4" fill="#E8F7F9" d="M49.243,91.115c-4.058-1.75-10.806-9.786-9.537-14.703c0.584-2.263,4.766,0.952,6.506,0.093
		c-4.199-1.061-6.31-1.975-8.896-1.295c-1.288,0.339-2.535,0.978-3.623,1.749c1.424,1.248,3.515,5.688,3.022,7.482
		c-0.551,2.005-3.607,0.938-5.482,1.24c-0.182,0.235-0.423,0.358-0.686,0.274c-0.091-0.029-0.274-0.105-0.503-0.206
		c-0.3-0.014-0.602-0.044-0.902-0.104c-2.936-0.591-5.868-1.598-8.53-3.059c4.451,4.468,13.153,10.105,28.639,9.823
		c1.25-0.023,2.428-0.069,3.568-0.127C51.609,91.991,50.414,91.62,49.243,91.115z"/>
	
		<ellipse transform="matrix(0.5889 -0.8082 0.8082 0.5889 2.1199 52.0168)" fill="#3CA5B5" cx="52.192" cy="23.925" rx="1.471" ry="2.943"/>
	<ellipse fill="#027285" cx="90.221" cy="80.214" rx="3.309" ry="3.007"/>
	<circle opacity="0.85" fill="#027285" cx="91.986" cy="88.16" r="2.027"/>
	<circle opacity="0.53" fill="#3CA5B5" cx="91.524" cy="80.214" r="1.434"/>
	
		<ellipse transform="matrix(0.9847 -0.174 0.174 0.9847 -7.4155 9.419)" fill="#027285" cx="50" cy="46.993" rx="3.007" ry="3.309"/>
	<circle opacity="0.53" fill="#3CA5B5" cx="49.773" cy="45.71" r="1.434"/>
	<circle opacity="0.53" fill="#3CA5B5" cx="91.675" cy="87.176" r="0.831"/>
	<path fill="#027285" d="M68.06,91.772c0,0,2.574,0.825,3.314,0.621c1.35-0.372,2.928,1.754,1.019,2.269
		C70.483,95.178,68.06,91.772,68.06,91.772z"/>
	<path opacity="0.4" fill="#E8F7F9" d="M69.957,92.905c0,0,1.572,0.504,2.023,0.379c0.824-0.227,1.788,1.071,0.622,1.386
		C71.437,94.985,69.957,92.905,69.957,92.905z"/>
	<path fill="#027285" d="M92.742,64.959c0,0-2.264,2.253-3.189,2.454c-1.687,0.367-2.068,3.388,0.311,2.858
		S92.742,64.959,92.742,64.959z"/>
	<path opacity="0.4" fill="#E8F7F9" d="M91.399,67.151c0,0-1.383,1.376-1.947,1.499c-1.03,0.224-1.263,2.069,0.19,1.745
		C91.095,70.07,91.399,67.151,91.399,67.151z"/>
	<path fill="#027285" d="M41.067,77.551c0,0,2.263,1.48,3.03,1.48c1.4,0,2.356,2.469,0.379,2.459
		C42.498,81.478,41.067,77.551,41.067,77.551z"/>
	<path opacity="0.4" fill="#E8F7F9" d="M42.595,79.147c0,0,1.381,0.903,1.85,0.903c0.855,0,1.439,1.508,0.231,1.501
		C43.469,81.545,42.595,79.147,42.595,79.147z"/>
</g>
</svg>
