<?xml version="1.0" encoding="utf-8"?>
<!-- Generator: Adobe Illustrator 23.0.2, SVG Export Plug-In . SVG Version: 6.00 Build 0)  -->
<svg version="1.1" xmlns="http://www.w3.org/2000/svg" xmlns:xlink="http://www.w3.org/1999/xlink" x="0px" y="0px"
	 viewBox="0 0 100 100" enable-background="new 0 0 100 100" xml:space="preserve">
<g id="Postre">
</g>
<g id="Capa_1" opacity="0.72">
<circle opacity="0.85" fill="#027285" cx="49.294" cy="49.294" r="47.412"/>
<path opacity="0.53" fill="#3CA5B5" d="M9.425,69.035c0,0-8.469-28.336,13.949-49.722s36.118,0,36.118,0s3.487-8.287,0-11.762
s24.162,6.148,31.386,29.138s-15.195,44.91-23.664,44.643c-8.469-0.267-12.289,0.802-18.599,5.614
c-6.31,4.812-29.227-1.604-28.978-12.03c0.249-10.426,4.982-7.218,7.473-1.604s21.92,9.891,25.158,4.277
c3.238-5.614,8.22-21.92,4.982-28.604c-3.238-6.683,8.469-25.128,13.451-22.99s3.487-4.812,3.487-4.812s-5.48-5.079-8.469-5.346
c0,0,0.747,12.831-5.48,12.564c0,0-3.066-10.693-16.191-12.831S12.414,38.293,9.425,69.035z"/>
<path opacity="0.57" fill="#E8F7F9" d="M9.165,63.549c0,0-9.606-15.184,2.479-38.658S53.942,5.369,53.942,5.369
s3.254,0.193,3.254,1.491s-0.697,6.643-4.183,5.249S29.307,12.883,22.18,21.87C5.064,43.45,7.406,56.153,9.165,63.549z"/>
<path opacity="0.4" fill="#E8F7F9" d="M17.454,77.881c0,0,7.136,15.572,32.619,15.107s27.575-8.599,29.899-11.853
c0,0-9.064,7.902-19.522,7.437s-3.254-3.132-3.254-3.132s26.802-4.55,30.911-23.025c0,0-13.712,17.558-28.122,16.629
s-17.431-4.416-21.847-3.254c-4.416,1.162-8.423,5.81-6.768,7.437s0.902,3.594,0,3.308C30.469,86.247,22.334,82.296,17.454,77.881z
"/>
<ellipse fill="#E8F7F9" cx="26.285" cy="80.321" rx="2.324" ry="1.511"/>

<ellipse transform="matrix(0.5889 -0.8082 0.8082 0.5889 1.9908 52.9202)" fill="#3CA5B5" cx="53.016" cy="24.503" rx="1.471" ry="2.943"/>
</g>
</svg>
