<?xml version="1.0" encoding="utf-8"?>
<!-- Generator: Adobe Illustrator 23.0.2, SVG Export Plug-In . SVG Version: 6.00 Build 0)  -->
<svg version="1.1" xmlns="http://www.w3.org/2000/svg" xmlns:xlink="http://www.w3.org/1999/xlink" x="0px" y="0px"
	 viewBox="0 0 100 100" enable-background="new 0 0 100 100" xml:space="preserve">
<g id="Postre">
</g>
<g id="Capa_1" opacity="0.72">
	<path opacity="0.85" fill="#027285" d="M4.818,59.404c-0.491-2.095-0.56-4.258,0.278-6.544c2.518-6.868,9.3-13.819,15.437-17.628
		c5.476-3.398,12.096-4.254,18.218-2.182c3.49,1.181,7.02,1.283,10.426,1.773c4.074-0.353,3.5-1.142,5.687-3.199
		c2.531-2.38,5.248-3.697,8.783-3.33c0.465,0.048,0.9,0.133,1.322,0.238c0.387-0.237,0.748-0.504,1.053-0.846
		c1.249-1.401,1.726-3.269,3.203-4.6c4.86-4.383,10.125-2.794,13.105,1.082c3.417,1.351,6.297,1.345,9.015,2.067
		C83.355,11.323,67.629,1.177,49.529,1.177c-26.185,0-47.412,21.227-47.412,47.412c0,4.829,0.727,9.487,2.068,13.876
		C4.338,61.418,4.545,60.39,4.818,59.404z"/>
	<path opacity="0.53" fill="#3CA5B5" d="M19.057,36.207c7.264-13.936,17.24-22.643,25.226-21.342
		c13.125,2.139,16.191,12.832,16.191,12.832c6.227,0.267,5.48-12.564,5.48-12.564c2.989,0.267,8.469,5.346,8.469,5.346
		s0.005,0.027,0.009,0.044c3.101-0.391,5.975,1.146,7.896,3.646c0.967,0.017,1.926,0.107,2.876,0.251
		C74.581,9.835,56.896,4.024,59.727,6.845c3.487,3.475,0,11.762,0,11.762s-13.7-21.386-36.118,0
		c-9.213,8.789-13.204,18.748-14.716,27.435C11.715,42.206,15.426,38.715,19.057,36.207z"/>
	<path opacity="0.57" fill="#E8F7F9" d="M9.212,45.613c1.595-6.511,5.345-14.542,13.202-24.449
		c7.127-8.987,27.347-11.156,30.833-9.761c3.486,1.394,4.183-3.951,4.183-5.249c0-1.298-3.254-1.491-3.254-1.491
		S23.964,0.712,11.878,24.186C6.252,35.113,5.329,44.241,5.947,50.88C6.807,49.089,7.922,47.316,9.212,45.613z"/>
	
		<ellipse transform="matrix(0.5889 -0.8082 0.8082 0.5889 2.6572 52.82)" fill="#3CA5B5" cx="53.25" cy="23.798" rx="1.471" ry="2.943"/>
	<ellipse fill="#027285" cx="75.75" cy="25.356" rx="3.309" ry="3.007"/>
	
		<ellipse transform="matrix(0.2062 -0.9785 0.9785 0.2062 -15.8861 79.0555)" opacity="0.85" fill="#027285" cx="40.782" cy="49.319" rx="1.313" ry="1.341"/>
	<circle opacity="0.53" fill="#3CA5B5" cx="77.053" cy="25.356" r="1.434"/>
	
		<ellipse transform="matrix(0.0769 -0.997 0.997 0.0769 -5.3405 77.0973)" fill="#027285" cx="38.968" cy="41.433" rx="2.571" ry="3.179"/>
	<ellipse opacity="0.53" fill="#3CA5B5" cx="38.729" cy="40.432" rx="1.509" ry="1.119"/>
	
		<ellipse transform="matrix(0.2062 -0.9785 0.9785 0.2062 -15.4266 78.3441)" opacity="0.53" fill="#3CA5B5" cx="40.574" cy="48.68" rx="0.538" ry="0.55"/>
	
		<ellipse transform="matrix(0.2062 -0.9785 0.9785 0.2062 30.618 109.7854)" opacity="0.85" fill="#027285" cx="82.975" cy="36.021" rx="1.242" ry="1.321"/>
	
		<ellipse transform="matrix(0.2062 -0.9785 0.9785 0.2062 31.0449 109.0977)" opacity="0.53" fill="#3CA5B5" cx="82.764" cy="35.414" rx="0.509" ry="0.542"/>
	<path fill="#027285" d="M4.452,64.591c0,0,1.073,2.481,1.712,2.904c1.168,0.772,0.605,3.359-1.039,2.26S4.452,64.591,4.452,64.591z
		"/>
	<path opacity="0.4" fill="#E8F7F9" d="M4.847,66.765c0,0,0.655,1.515,1.046,1.773c0.713,0.471,0.37,2.051-0.634,1.38
		S4.847,66.765,4.847,66.765z"/>
	<path fill="#027285" d="M4.675,71.556c0,0-1.197,1.353-1.653,1.473c-0.834,0.218-1.152,2.038,0.025,1.723
		C4.223,74.436,4.675,71.556,4.675,71.556z"/>
	<path opacity="0.4" fill="#E8F7F9" d="M3.928,72.874c0,0-0.731,0.826-1.009,0.899c-0.509,0.133-0.703,1.244,0.015,1.052
		C3.652,74.632,3.928,72.874,3.928,72.874z"/>
	<path fill="#027285" d="M91.949,28.363c0,0,1.792,2.645,1.817,3.59c0.047,1.726,2.943,2.664,2.866,0.227
		S91.949,28.363,91.949,28.363z"/>
	<path opacity="0.4" fill="#E8F7F9" d="M93.852,30.091c0,0,1.094,1.615,1.109,2.192c0.028,1.054,1.797,1.626,1.749,0.139
		C96.663,30.934,93.852,30.091,93.852,30.091z"/>
	<path fill="#027285" d="M96.769,34.374c0,0-0.39,2.05-0.826,2.524c-0.796,0.865,0.156,2.544,1.273,1.318
		C98.333,36.989,96.769,34.374,96.769,34.374z"/>
	<path opacity="0.4" fill="#E8F7F9" d="M96.867,36.021c0,0-0.238,1.252-0.505,1.541c-0.486,0.528,0.095,1.553,0.777,0.804
		C97.822,37.618,96.867,36.021,96.867,36.021z"/>
	<path fill="#027285" d="M7.944,51.798c0,0,0.487,2.659,1.015,3.215c0.965,1.015-0.166,3.409-1.521,1.969
		C6.084,55.542,7.944,51.798,7.944,51.798z"/>
	<path opacity="0.4" fill="#E8F7F9" d="M7.84,54.006c0,0,0.297,1.624,0.62,1.963c0.589,0.62-0.101,2.081-0.928,1.202
		S7.84,54.006,7.84,54.006z"/>
	<path fill="#027285" d="M10.118,46.588c0,0,11.294-10.23,18.471-11.174c7.176-0.944,19.235,3.914,22.941,3.234
		c3.693-0.678,7.059-3.649,7.059-5.325c0-1.676,7.879-2.431,6.824,1.05c-1.055,3.481,2.176,6.391,2.176,6.391
		s2.765,6.262-0.882,5.278c-3.647-0.984-2.588-5.337-2.588-5.337s1.529-5.291-2.471-5.291c-2.492,0-3.381-0.286-8.397,3.914
		s-10.192-0.68-10.192-0.68S32.824,33.412,10.118,46.588z"/>
	
		<ellipse transform="matrix(0.9492 -0.3147 0.3147 0.9492 -10.2947 23.2825)" opacity="0.57" fill="#E8F7F9" cx="66.955" cy="43.522" rx="0.963" ry="2.317"/>
</g>
</svg>
