<?xml version="1.0" encoding="utf-8"?>
<!-- Generator: Adobe Illustrator 23.0.2, SVG Export Plug-In . SVG Version: 6.00 Build 0)  -->
<svg version="1.1" id="TACO" xmlns="http://www.w3.org/2000/svg" xmlns:xlink="http://www.w3.org/1999/xlink" x="0px" y="0px"
	 viewBox="0 0 142.588 92.824" enable-background="new 0 0 142.588 92.824" xml:space="preserve">
<path fill="#E6AE64" d="M14.92,78.884c0,0,3.928,7.126,9.457,0.537c0,0,5.176-7.34,1.783-11.647
	c-3.569-4.53-1.195-36.052,22.742-45.745c23.459-9.499,55.416-13.331,77.897,15.945s0,33.851,0,33.851L25.376,89.471
	C25.376,89.471,14.005,91.301,14.92,78.884z"/>
<path fill="#9F602B" d="M135.696,53.525c0,0,7.754-3.264,0-11.89c0,0,2.539-6.568-6.087-9.508c0,0-3.941-2.283-4.274,4.005
	C125.334,36.132,136,50.123,135.696,53.525z"/>
<path fill="#F63C23" d="M108.593,21.463c0,0,4.351-7.863,13.076-1.883s7.156,12.143,7.156,12.143s-2.177-0.089-2.682,1.13
	c-0.505,1.219-0.808,2.802-0.808,2.802S112.552,23.01,108.593,21.463z"/>
<path fill="#3D910C" d="M108.561,22.843c0,0,0.406-1.155,3.042-3.061c2.636-1.906-6.465-16.25-18.039-9.523
	c0,0-10.783-11.97-18.993,0.89c0,0-12.168-11.475-20.18,2.869c0,0-6.529-6.232-12.959-2.671c-6.43,3.561-6.43,11.079-6.43,11.079
	s-6.727-1.484-10.486,3.166s-2.176,11.574-2.176,11.574s1.795,5.375,6.685,8.079c0,0,5.767-16.854,19.881-22.117
	s25.832-11.167,47.512-5.242C96.417,17.886,108.191,22.399,108.561,22.843z"/>
<path fill="#FCB83D" d="M29.024,44.025c0,0-5.307,15.08-4.067,22.395c0,0-10.433,0.39-10.037-9.007c0,0-6.727-4.748-1.781-12.168
	c4.946-7.419,2.438-6.731,9.627-8.262C22.767,36.983,23.244,41.123,29.024,44.025z"/>
<path fill="#F63C23" d="M13.14,45.245c0,0-3.766-6.727,0.837-12.266s8.286-3.439,8.286-3.439s-1.331,3.923,0.253,6.869l-4.682,1.924
	l-4.392,6.452L13.14,45.245z"/>
<path fill="#9F602B" d="M14.868,78.394c0,0-8.084,3.235-8.868-6.96c0,0-5.391-3.627-1.274-10.881c0,0-3.991-8.033,7.513-8.624
	c0,0,2.289,4.899,3.564,4.997s-1.912,2.291,2.867,6.831c0,0,6.536,3.08,7.079,2.094s2.209,9.993,1.621,12.444
	c0,0-2.639,4.97-5.515,4.383C19.581,82.215,17.675,84.481,14.868,78.394z"/>
<circle cx="51.451" cy="52.548" r="5.816"/>
<circle fill="#FCF7F7" cx="49.784" cy="50.751" r="1.666"/>
<circle stroke="#070606" stroke-miterlimit="10" cx="104.253" cy="43.661" r="5.816"/>
<circle fill="#FCF7F7" stroke="#070606" stroke-miterlimit="10" cx="102.587" cy="41.864" r="1.666"/>
<path fill="none" stroke="#C18946" stroke-width="3" stroke-miterlimit="10" d="M67.444,56.012c0,0,3.546,5.097,10.212,3.529
	c6.666-1.568,7.188-6.016,7.188-6.016"/>
<ellipse fill="#FDA9A9" cx="49.49" cy="58.92" rx="6.796" ry="3.267"/>
<ellipse transform="matrix(0.9569 -0.2905 0.2905 0.9569 -9.8228 33.1074)" fill="#FDA9A9" cx="106.606" cy="49.64" rx="6.796" ry="3.267"/>
<path fill="none" stroke="#6B3C1A" stroke-miterlimit="10" d="M15.6,72.082c0,0,0.751,6.012,4.15,3.529"/>
<path fill="none" stroke="#6B3C1A" stroke-miterlimit="10" d="M9.428,60.653c0,0-2.972,5.28,1.236,5.305"/>
</svg>
